G04*
G04 #@! TF.GenerationSoftware,Altium Limited,Altium Designer,18.1.9 (240)*
G04*
G04 Layer_Color=16711935*
%FSLAX25Y25*%
%MOIN*%
G70*
G01*
G75*
%ADD15C,0.01000*%
%ADD64C,0.00236*%
D15*
X272050Y302350D02*
G03*
X284550Y289850I12500J0D01*
G01*
X289050Y302350D02*
G03*
X289050Y302350I-4500J0D01*
G01*
X764050D02*
G03*
X764050Y302350I-4500J0D01*
G01*
X759550Y289850D02*
G03*
X772050Y302350I0J12500D01*
G01*
Y627350D02*
G03*
X759550Y639850I-12500J0D01*
G01*
X764050Y627350D02*
G03*
X764050Y627350I-4500J0D01*
G01*
X289050D02*
G03*
X289050Y627350I-4500J0D01*
G01*
X284550Y639850D02*
G03*
X272050Y627350I0J-12500D01*
G01*
X455839Y342270D02*
Y346207D01*
Y292902D02*
Y342270D01*
X408594Y346207D02*
X455839D01*
X408594Y292902D02*
X455839D01*
X408594D02*
Y346207D01*
X272050Y302350D02*
Y627350D01*
X284550Y289850D02*
X759550D01*
X772050Y302350D02*
Y627350D01*
X284550Y639850D02*
X759550D01*
D64*
X466926Y359400D02*
X468238D01*
X468500Y359662D01*
Y360187D01*
X468238Y360450D01*
X466926D01*
Y362024D02*
Y360974D01*
X467713D01*
X467451Y361499D01*
Y361761D01*
X467713Y362024D01*
X468238D01*
X468500Y361761D01*
Y361237D01*
X468238Y360974D01*
M02*
