G04*
G04 #@! TF.GenerationSoftware,Altium Limited,Altium Designer,18.1.9 (240)*
G04*
G04 Layer_Color=255*
%FSLAX25Y25*%
%MOIN*%
G70*
G01*
G75*
%ADD51C,0.05118*%
%ADD52C,0.09843*%
%ADD53C,0.05906*%
%ADD54R,0.05906X0.05906*%
%ADD55R,0.15748X0.07874*%
%ADD56R,0.12992X0.07874*%
%ADD57R,0.07874X0.13780*%
%ADD58C,0.06693*%
%ADD59C,0.06299*%
%ADD60R,0.06299X0.06299*%
%ADD61C,0.10000*%
D51*
X366600Y340400D02*
D03*
X356600D02*
D03*
D52*
X376600Y320400D02*
D03*
X336600D02*
D03*
D53*
X585000Y440300D02*
D03*
Y430300D02*
D03*
Y450300D02*
D03*
Y410300D02*
D03*
Y400300D02*
D03*
Y420300D02*
D03*
Y390300D02*
D03*
Y370300D02*
D03*
Y380300D02*
D03*
Y350300D02*
D03*
Y340300D02*
D03*
Y360300D02*
D03*
Y330300D02*
D03*
X555000Y450300D02*
D03*
Y430300D02*
D03*
Y420300D02*
D03*
Y440300D02*
D03*
Y400300D02*
D03*
Y390300D02*
D03*
Y410300D02*
D03*
Y370300D02*
D03*
Y380300D02*
D03*
Y340300D02*
D03*
Y360300D02*
D03*
Y350300D02*
D03*
Y320300D02*
D03*
Y330300D02*
D03*
D54*
X585000Y320300D02*
D03*
D55*
X432217Y340302D02*
D03*
D56*
Y316680D02*
D03*
D57*
X449933Y312743D02*
D03*
X414500D02*
D03*
D58*
X432217Y304869D02*
D03*
D59*
X610500Y323900D02*
D03*
Y333900D02*
D03*
X610600Y405700D02*
D03*
Y395700D02*
D03*
Y385700D02*
D03*
Y375700D02*
D03*
Y365700D02*
D03*
X610500Y438200D02*
D03*
Y448200D02*
D03*
Y458200D02*
D03*
Y468200D02*
D03*
D60*
Y313900D02*
D03*
X610600Y355700D02*
D03*
X610500Y428200D02*
D03*
D61*
X284550Y627350D02*
D03*
Y302350D02*
D03*
X759550D02*
D03*
Y627350D02*
D03*
M02*
