G04*
G04 #@! TF.GenerationSoftware,Altium Limited,Altium Designer,18.1.9 (240)*
G04*
G04 Layer_Color=255*
%FSLAX25Y25*%
%MOIN*%
G70*
G01*
G75*
%ADD16R,0.04500X0.06000*%
%ADD17O,0.05512X0.01181*%
%ADD18O,0.01181X0.05512*%
%ADD19O,0.08661X0.02362*%
%ADD20R,0.06000X0.04500*%
%ADD21R,0.05118X0.04724*%
%ADD22R,0.11000X0.06500*%
%ADD23R,0.04724X0.05118*%
%ADD24R,0.03937X0.02362*%
G04:AMPARAMS|DCode=25|XSize=25.59mil|YSize=64.96mil|CornerRadius=1.92mil|HoleSize=0mil|Usage=FLASHONLY|Rotation=90.000|XOffset=0mil|YOffset=0mil|HoleType=Round|Shape=RoundedRectangle|*
%AMROUNDEDRECTD25*
21,1,0.02559,0.06112,0,0,90.0*
21,1,0.02175,0.06496,0,0,90.0*
1,1,0.00384,0.03056,0.01088*
1,1,0.00384,0.03056,-0.01088*
1,1,0.00384,-0.03056,-0.01088*
1,1,0.00384,-0.03056,0.01088*
%
%ADD25ROUNDEDRECTD25*%
G04:AMPARAMS|DCode=26|XSize=21.65mil|YSize=31.5mil|CornerRadius=1.95mil|HoleSize=0mil|Usage=FLASHONLY|Rotation=180.000|XOffset=0mil|YOffset=0mil|HoleType=Round|Shape=RoundedRectangle|*
%AMROUNDEDRECTD26*
21,1,0.02165,0.02760,0,0,180.0*
21,1,0.01776,0.03150,0,0,180.0*
1,1,0.00390,-0.00888,0.01380*
1,1,0.00390,0.00888,0.01380*
1,1,0.00390,0.00888,-0.01380*
1,1,0.00390,-0.00888,-0.01380*
%
%ADD26ROUNDEDRECTD26*%
%ADD51C,0.05118*%
%ADD52C,0.09843*%
%ADD53C,0.05906*%
%ADD54R,0.05906X0.05906*%
%ADD55R,0.15748X0.07874*%
%ADD56R,0.12992X0.07874*%
%ADD57R,0.07874X0.13780*%
%ADD58C,0.06693*%
%ADD59C,0.06299*%
%ADD60R,0.06299X0.06299*%
%ADD61C,0.10000*%
D16*
X515000Y444400D02*
D03*
X507000D02*
D03*
X515000Y435100D02*
D03*
X507000D02*
D03*
X472300Y425047D02*
D03*
X464300D02*
D03*
Y434500D02*
D03*
X472300D02*
D03*
X472200Y443900D02*
D03*
X464200D02*
D03*
X464600Y411400D02*
D03*
X472600D02*
D03*
X492100Y398100D02*
D03*
X484100D02*
D03*
X515300Y363800D02*
D03*
X507300D02*
D03*
Y354700D02*
D03*
X515300D02*
D03*
X573500Y474900D02*
D03*
X565500D02*
D03*
X574200Y307700D02*
D03*
X566200D02*
D03*
X500600Y398100D02*
D03*
X508600D02*
D03*
X464500Y402100D02*
D03*
X472500D02*
D03*
X445900Y401800D02*
D03*
X437900D02*
D03*
X491300Y364700D02*
D03*
X483300D02*
D03*
X463000Y350100D02*
D03*
X471000D02*
D03*
X471600Y373700D02*
D03*
X463600D02*
D03*
X423598Y368900D02*
D03*
X431598D02*
D03*
Y359400D02*
D03*
X423598D02*
D03*
X448512Y351983D02*
D03*
X440512D02*
D03*
D17*
X505698Y428990D02*
D03*
Y427021D02*
D03*
Y423084D02*
D03*
Y421116D02*
D03*
Y425053D02*
D03*
Y417179D02*
D03*
Y415210D02*
D03*
Y419147D02*
D03*
X480502Y428990D02*
D03*
Y427021D02*
D03*
Y423084D02*
D03*
Y421116D02*
D03*
Y425053D02*
D03*
Y417179D02*
D03*
Y415210D02*
D03*
Y419147D02*
D03*
D18*
X498021Y434698D02*
D03*
X499990D02*
D03*
X494084D02*
D03*
X496053D02*
D03*
X490147D02*
D03*
X492116D02*
D03*
Y409502D02*
D03*
X494084D02*
D03*
X490147D02*
D03*
X498021D02*
D03*
X499990D02*
D03*
X496053D02*
D03*
X486210Y434698D02*
D03*
X488179D02*
D03*
X486210Y409502D02*
D03*
X488179D02*
D03*
D19*
X513449Y388400D02*
D03*
Y378400D02*
D03*
Y383400D02*
D03*
Y373400D02*
D03*
X494551Y388400D02*
D03*
Y383400D02*
D03*
Y378400D02*
D03*
Y373400D02*
D03*
D20*
X483700Y382000D02*
D03*
Y374000D02*
D03*
X545400Y456649D02*
D03*
Y448649D02*
D03*
X464000Y390900D02*
D03*
Y382900D02*
D03*
X474100Y390900D02*
D03*
Y382900D02*
D03*
X546600Y328900D02*
D03*
Y320900D02*
D03*
X516200Y398600D02*
D03*
Y406600D02*
D03*
X481100Y444000D02*
D03*
Y452000D02*
D03*
X490600Y444100D02*
D03*
Y452100D02*
D03*
D21*
X545200Y430366D02*
D03*
Y438634D02*
D03*
D22*
X526400Y375900D02*
D03*
Y364900D02*
D03*
X543900Y413900D02*
D03*
Y402900D02*
D03*
D23*
X573934Y465200D02*
D03*
X565666D02*
D03*
D24*
X449925Y367723D02*
D03*
Y360243D02*
D03*
X439098Y363983D02*
D03*
Y367723D02*
D03*
Y360243D02*
D03*
D25*
X453822Y377500D02*
D03*
Y382500D02*
D03*
Y387500D02*
D03*
Y392500D02*
D03*
X431578Y377500D02*
D03*
Y382500D02*
D03*
Y387500D02*
D03*
Y392500D02*
D03*
D26*
X463760Y356880D02*
D03*
X467500D02*
D03*
X471240D02*
D03*
Y366920D02*
D03*
X463760D02*
D03*
D51*
X366600Y340400D02*
D03*
X356600D02*
D03*
D52*
X376600Y320400D02*
D03*
X336600D02*
D03*
D53*
X585000Y440300D02*
D03*
Y430300D02*
D03*
Y450300D02*
D03*
Y410300D02*
D03*
Y400300D02*
D03*
Y420300D02*
D03*
Y390300D02*
D03*
Y370300D02*
D03*
Y380300D02*
D03*
Y350300D02*
D03*
Y340300D02*
D03*
Y360300D02*
D03*
Y330300D02*
D03*
X555000Y450300D02*
D03*
Y430300D02*
D03*
Y420300D02*
D03*
Y440300D02*
D03*
Y400300D02*
D03*
Y390300D02*
D03*
Y410300D02*
D03*
Y370300D02*
D03*
Y380300D02*
D03*
Y340300D02*
D03*
Y360300D02*
D03*
Y350300D02*
D03*
Y320300D02*
D03*
Y330300D02*
D03*
D54*
X585000Y320300D02*
D03*
D55*
X432217Y340302D02*
D03*
D56*
Y316680D02*
D03*
D57*
X449933Y312743D02*
D03*
X414500D02*
D03*
D58*
X432217Y304869D02*
D03*
D59*
X610500Y323900D02*
D03*
Y333900D02*
D03*
X610600Y405700D02*
D03*
Y395700D02*
D03*
Y385700D02*
D03*
Y375700D02*
D03*
Y365700D02*
D03*
X610500Y438200D02*
D03*
Y448200D02*
D03*
Y458200D02*
D03*
Y468200D02*
D03*
D60*
Y313900D02*
D03*
X610600Y355700D02*
D03*
X610500Y428200D02*
D03*
D61*
X284550Y627350D02*
D03*
Y302350D02*
D03*
X759550D02*
D03*
Y627350D02*
D03*
M02*
