M48
;Layer_Color=9474304
;FILE_FORMAT=2:5
INCH,LZ
;TYPE=PLATED
T1F00S00C0.01000
T2F00S00C0.03543
T3F00S00C0.03701
T4F00S00C0.03937
T6F00S00C0.06693
T7F00S00C0.08110
T8F00S00C0.10000
%
T01
X0419198Y03594
Y03689
X04317Y03742
X0427178Y03875
X04601Y04021
X04602Y04114
X04599Y0425047
Y04345
X04598Y04439
X0454325Y0360243
X04767Y035
X0476Y03737
X04969Y03694
X04957Y03647
X05029Y03547
X0524Y03599
X05291Y03597
X05398Y04195
X05476Y04175
X05384Y0436
X05194Y04351
Y04444
X0500258Y04464
X0498021Y0430298
X0488179
X04867Y04262
X04856Y04196
X0505698Y0412779
X05112Y04155
X04965Y03981
X04906Y04565
X04811Y04564
X05454Y0461049
X05779Y04749
T02
X0555Y03203
Y03303
Y03403
Y03503
Y03603
Y03703
Y03803
Y03903
Y04003
Y04103
Y04203
Y04303
Y04403
Y04503
X0585
Y04403
Y04303
Y04203
Y04103
Y04003
Y03903
Y03803
Y03703
Y03603
Y03503
Y03403
Y03303
Y03203
T03
X03566Y03404
X03666
T04
X06105Y03139
Y03239
Y03339
X06106Y03557
Y03657
Y03757
Y03857
Y03957
Y04057
X06105Y04282
Y04382
Y04482
Y04582
Y04682
T06
X0432217Y0304869
T07
X03366Y03204
X03766
T08
X075955Y030235
X028455
Y062735
X075955
M30
