G04*
G04 #@! TF.GenerationSoftware,Altium Limited,Altium Designer,18.1.9 (240)*
G04*
G04 Layer_Color=8388736*
%FSLAX25Y25*%
%MOIN*%
G70*
G01*
G75*
%ADD27R,0.05300X0.06800*%
%ADD28O,0.06312X0.01981*%
%ADD29O,0.01981X0.06312*%
%ADD30O,0.09461X0.03162*%
%ADD31R,0.06800X0.05300*%
%ADD32R,0.05918X0.05524*%
%ADD33R,0.11800X0.07300*%
%ADD34R,0.05524X0.05918*%
%ADD35R,0.04737X0.03162*%
G04:AMPARAMS|DCode=36|XSize=33.59mil|YSize=72.96mil|CornerRadius=5.92mil|HoleSize=0mil|Usage=FLASHONLY|Rotation=90.000|XOffset=0mil|YOffset=0mil|HoleType=Round|Shape=RoundedRectangle|*
%AMROUNDEDRECTD36*
21,1,0.03359,0.06112,0,0,90.0*
21,1,0.02175,0.07296,0,0,90.0*
1,1,0.01184,0.03056,0.01088*
1,1,0.01184,0.03056,-0.01088*
1,1,0.01184,-0.03056,-0.01088*
1,1,0.01184,-0.03056,0.01088*
%
%ADD36ROUNDEDRECTD36*%
G04:AMPARAMS|DCode=37|XSize=29.65mil|YSize=39.5mil|CornerRadius=5.95mil|HoleSize=0mil|Usage=FLASHONLY|Rotation=180.000|XOffset=0mil|YOffset=0mil|HoleType=Round|Shape=RoundedRectangle|*
%AMROUNDEDRECTD37*
21,1,0.02965,0.02760,0,0,180.0*
21,1,0.01776,0.03950,0,0,180.0*
1,1,0.01190,-0.00888,0.01380*
1,1,0.01190,0.00888,0.01380*
1,1,0.01190,0.00888,-0.01380*
1,1,0.01190,-0.00888,-0.01380*
%
%ADD37ROUNDEDRECTD37*%
%ADD38C,0.05918*%
%ADD39C,0.10642*%
%ADD40C,0.06706*%
%ADD41R,0.06706X0.06706*%
%ADD42R,0.16548X0.08674*%
%ADD43R,0.13792X0.08674*%
%ADD44R,0.08674X0.14580*%
%ADD45C,0.07493*%
%ADD46C,0.07099*%
%ADD47R,0.07099X0.07099*%
%ADD48C,0.10800*%
D27*
X515000Y444400D02*
D03*
X507000D02*
D03*
X515000Y435100D02*
D03*
X507000D02*
D03*
X472300Y425047D02*
D03*
X464300D02*
D03*
Y434500D02*
D03*
X472300D02*
D03*
X472200Y443900D02*
D03*
X464200D02*
D03*
X464600Y411400D02*
D03*
X472600D02*
D03*
X492100Y398100D02*
D03*
X484100D02*
D03*
X515300Y363800D02*
D03*
X507300D02*
D03*
Y354700D02*
D03*
X515300D02*
D03*
X573500Y474900D02*
D03*
X565500D02*
D03*
X574200Y307700D02*
D03*
X566200D02*
D03*
X500600Y398100D02*
D03*
X508600D02*
D03*
X464500Y402100D02*
D03*
X472500D02*
D03*
X445900Y401800D02*
D03*
X437900D02*
D03*
X491300Y364700D02*
D03*
X483300D02*
D03*
X463000Y350100D02*
D03*
X471000D02*
D03*
X471600Y373700D02*
D03*
X463600D02*
D03*
X423598Y368900D02*
D03*
X431598D02*
D03*
Y359400D02*
D03*
X423598D02*
D03*
X448512Y351983D02*
D03*
X440512D02*
D03*
D28*
X505698Y428990D02*
D03*
Y427021D02*
D03*
Y423084D02*
D03*
Y421116D02*
D03*
Y425053D02*
D03*
Y417179D02*
D03*
Y415210D02*
D03*
Y419147D02*
D03*
X480502Y428990D02*
D03*
Y427021D02*
D03*
Y423084D02*
D03*
Y421116D02*
D03*
Y425053D02*
D03*
Y417179D02*
D03*
Y415210D02*
D03*
Y419147D02*
D03*
D29*
X498021Y434698D02*
D03*
X499990D02*
D03*
X494084D02*
D03*
X496053D02*
D03*
X490147D02*
D03*
X492116D02*
D03*
Y409502D02*
D03*
X494084D02*
D03*
X490147D02*
D03*
X498021D02*
D03*
X499990D02*
D03*
X496053D02*
D03*
X486210Y434698D02*
D03*
X488179D02*
D03*
X486210Y409502D02*
D03*
X488179D02*
D03*
D30*
X513449Y388400D02*
D03*
Y378400D02*
D03*
Y383400D02*
D03*
Y373400D02*
D03*
X494551Y388400D02*
D03*
Y383400D02*
D03*
Y378400D02*
D03*
Y373400D02*
D03*
D31*
X483700Y382000D02*
D03*
Y374000D02*
D03*
X545400Y456649D02*
D03*
Y448649D02*
D03*
X464000Y390900D02*
D03*
Y382900D02*
D03*
X474100Y390900D02*
D03*
Y382900D02*
D03*
X546600Y328900D02*
D03*
Y320900D02*
D03*
X516200Y398600D02*
D03*
Y406600D02*
D03*
X481100Y444000D02*
D03*
Y452000D02*
D03*
X490600Y444100D02*
D03*
Y452100D02*
D03*
D32*
X545200Y430366D02*
D03*
Y438634D02*
D03*
D33*
X526400Y375900D02*
D03*
Y364900D02*
D03*
X543900Y413900D02*
D03*
Y402900D02*
D03*
D34*
X573934Y465200D02*
D03*
X565666D02*
D03*
D35*
X449925Y367723D02*
D03*
Y360243D02*
D03*
X439098Y363983D02*
D03*
Y367723D02*
D03*
Y360243D02*
D03*
D36*
X453822Y377500D02*
D03*
Y382500D02*
D03*
Y387500D02*
D03*
Y392500D02*
D03*
X431578Y377500D02*
D03*
Y382500D02*
D03*
Y387500D02*
D03*
Y392500D02*
D03*
D37*
X463760Y356880D02*
D03*
X467500D02*
D03*
X471240D02*
D03*
Y366920D02*
D03*
X463760D02*
D03*
D38*
X366600Y340400D02*
D03*
X356600D02*
D03*
D39*
X376600Y320400D02*
D03*
X336600D02*
D03*
D40*
X585000Y440300D02*
D03*
Y430300D02*
D03*
Y450300D02*
D03*
Y410300D02*
D03*
Y400300D02*
D03*
Y420300D02*
D03*
Y390300D02*
D03*
Y370300D02*
D03*
Y380300D02*
D03*
Y350300D02*
D03*
Y340300D02*
D03*
Y360300D02*
D03*
Y330300D02*
D03*
X555000Y450300D02*
D03*
Y430300D02*
D03*
Y420300D02*
D03*
Y440300D02*
D03*
Y400300D02*
D03*
Y390300D02*
D03*
Y410300D02*
D03*
Y370300D02*
D03*
Y380300D02*
D03*
Y340300D02*
D03*
Y360300D02*
D03*
Y350300D02*
D03*
Y320300D02*
D03*
Y330300D02*
D03*
D41*
X585000Y320300D02*
D03*
D42*
X432217Y340302D02*
D03*
D43*
Y316680D02*
D03*
D44*
X449933Y312743D02*
D03*
X414500D02*
D03*
D45*
X432217Y304869D02*
D03*
D46*
X610500Y323900D02*
D03*
Y333900D02*
D03*
X610600Y405700D02*
D03*
Y395700D02*
D03*
Y385700D02*
D03*
Y375700D02*
D03*
Y365700D02*
D03*
X610500Y438200D02*
D03*
Y448200D02*
D03*
Y458200D02*
D03*
Y468200D02*
D03*
D47*
Y313900D02*
D03*
X610600Y355700D02*
D03*
X610500Y428200D02*
D03*
D48*
X284550Y627350D02*
D03*
Y302350D02*
D03*
X759550D02*
D03*
Y627350D02*
D03*
M02*
